<?xml version="1.0" encoding="utf-8"?>
<!-- Generator: Adobe Illustrator 24.3.0, SVG Export Plug-In . SVG Version: 6.00 Build 0)  -->
<svg version="1.1" id="Layer_1" xmlns="http://www.w3.org/2000/svg" xmlns:xlink="http://www.w3.org/1999/xlink" x="0px" y="0px"
	 viewBox="0 0 1080 1080" style="enable-background:new 0 0 1080 1080;" xml:space="preserve">
<style type="text/css">
	.st0{fill:#00244A;}
</style>
<path class="st0" d="M389.31,628.47c8.89,2.31,9.21,8.55,7.84,15.68c0.96,0.06,1.92,0.13,2.88,0.19c1.01-2.66,3.01-5.39,2.85-7.97
	c-0.44-7.03-2.04-13.98-2.72-21.01c-0.76-7.72,4.89-13.26,10.87-10.74c2.17,0.91,3.81,3.22,5.7,4.89
	c9.88-15.56,1.73-42.31-14.75-48.56c-5.24-1.99-10.57-3.83-15.57-6.36c-5.52-2.78-8.72-7.26-9.41-14.27
	c-0.39-3.98-2.87-8.26-5.51-11.37c-6.79-8.01-12.31-16.54-14.28-27.26c-1.2-6.5-4.6-11.01-10.64-13.36c-2.59-1.01-5-2.59-7.43-4.03
	c-20.76-12.21-24.55-34.45-8.88-53.5c9.58-11.64,19.6-22.87,29.36-34.35c19.75-23.23,44.45-28.22,71.87-20.48
	c41.65,11.76,72.53,55.49,71.81,100.68c-0.07,4.12-0.74,8.27-1.57,12.31c-2.38,11.55-1.26,22.2,5.48,32.15
	c3.58,5.29,7.08,7.17,12.78,3.79c11.74-6.96,24.13-12.84,35.32-20.65c27.62-19.27,58.38-29.66,90.07-38.21
	c54.61-14.74,105.95-37.29,149.67-75.6c14.91-13.06,27.02-29.59,41.06-43.83c17.05-17.29,34.86-33.76,52.21-50.72
	c10.82-10.58,21.42-21.42,32.11-32.14c-0.49-0.78-0.98-1.55-1.46-2.33c-2.26,1.11-4.58,2.11-6.77,3.34
	c-31.14,17.57-62.18,35.36-93.46,52.67c-10.47,5.79-21.46,10.6-32.38,15.42c-11.63,5.13-19.8,2.52-26.24-8.76
	c-3.69-6.45-6.41-13.56-9.18-20.54c-3.12-7.87-1.35-15.28,4.17-23.03c-3-0.46-4.89-0.97-6.79-1c-67.67-1.14-135.3-0.06-202.81,5.13
	c-66.37,5.1-132.4,13.28-197.65,27.3c-58.88,12.65-116.82,28.71-170.97,57.01c-21.73,11.35-42.4,24.62-59.01,43.7
	c-29.86,34.29-29.71,71.69,0.28,106.03c23.72,27.16,53.19,45.58,84.34,61.44c6.23,3.17,12.46,6.34,18.69,9.51
	c-0.24,0.58-0.47,1.16-0.71,1.74c-13.57-5.94-27.24-11.62-40.68-17.88c-34.33-16-67.87-33.74-96.2-60.08
	c-11.17-10.39-21.4-22.67-29.44-35.86c-15.6-25.6-12.81-53.34,5.52-76.91c17.4-22.36,40.44-36.51,64.81-48.5
	c46.86-23.05,96.55-36.44,147.01-47.05c73.79-15.53,148.46-23.37,223.51-27.73c72.48-4.21,145.01-3.74,217.53-1.75
	c14.39,0.4,28.74,1.87,43.13,2.57c2.93,0.14,6.04-0.56,8.84-1.58c41.94-15.19,83.87-30.43,125.75-45.8
	c19.53-7.17,38.94-14.71,58.43-21.97c4.47-1.67,6.3-5.38,8.97-9.19c6.36-9.08,14.29-16.95,21.66-25.23c1.25-1.4,3.07-2.23,4.37-3.59
	c14.55-15.36,35.68-13.77,48.27,3.78c1.37,1.9,2.88,4.27,2.99,6.5c0.61,12.91,1.33,25.86,0.96,38.76c-0.19,6.82-5.24,11.1-11,14.06
	c-17.28,8.88-33.18,19.99-45.91,35.23c-6.2,7.42-11.02,16.2-16.03,24.65c-20.17,34.04-40.2,68.17-60.21,102.32
	c-11.45,19.55-21.57,40.11-34.43,58.56c-18.67,26.79-44.92,45.13-70.62,63.73c-32.96,23.84-69.66,40.11-105.82,57.4
	c-17.76,8.49-35.98,15.96-54.09,23.63c-45.47,19.26-77.73,53.34-100.47,98.33c-18.02,35.66-29.11,74.07-40.86,112.25
	c-4.34,14.11-9.03,28.1-14.03,43.6c-10.87-9.77-19.82-19.03-27.22-30.05c-3.83-5.71-8.15-11.27-13.11-15.87
	c-4.56-4.23-7.69-2.87-8.54,3.58c-1.82,13.78-3.06,27.66-4.33,41.52c-1.54,16.78-5.55,32.74-14.02,47.18c-1.93,3.3-4.35,6.39-7,9.08
	c-14.3,14.55-26.19,13.33-38.61-2.96c-22.53-29.54-23.75-61.92-12.75-96.34c6.58-20.62,12.68-41.41,18.93-62.14
	c0.63-2.08,0.79-4.32,1.24-6.47c3.31-15.8,1.46-29.82-10.95-41.27c-13.91-12.84-15.13-30.84-15.53-48.54
	c-0.21-9.13,1.16-18.42,2.76-27.46c1.92-10.86,10.09-16.6,18.48-21.66c3-1.81,6.33-3.14,9.65-4.18c5.86-1.84,8.84,0.78,8.83,7.2
	c-0.01,1.88-0.37,4.55,0.62,5.51C396.75,616.48,395.16,621.87,389.31,628.47z"/>
</svg>
